<?xml version="1.0" encoding="utf-8"?>
<!-- Svg Vector Icons : http://www.onlinewebfonts.com/icon -->
<!DOCTYPE svg PUBLIC "-//W3C//DTD SVG 1.1//EN" "http://www.w3.org/Graphics/SVG/1.1/DTD/svg11.dtd">
<svg version="1.1" xmlns="http://www.w3.org/2000/svg" xmlns:xlink="http://www.w3.org/1999/xlink" x="0px" y="0px" viewBox="0 0 1000 1000" enable-background="new 0 0 1000 1000" xml:space="preserve">
<metadata> Svg Vector Icons : http://www.onlinewebfonts.com/icon </metadata>
<g><path d="M395.3,540.2h-112c-11,0-19.9,8.9-19.9,19.9v111.7c0,11,8.9,19.9,19.9,19.9h112c11,0,19.9-8.9,19.9-19.9V560.1C415.2,549.1,406.3,540.2,395.3,540.2z M375.4,651.9h-72.2V580h72.2V651.9L375.4,651.9z"/><path d="M983,435.8l-470.1-398c-7.4-6.3-18.3-6.3-25.7,0L17,435.8c-8.4,7.1-9.4,19.6-2.3,28c3.9,4.7,9.5,7,15.2,7c4.5,0,9.1-1.6,12.8-4.7l48.1-40.7V947c0,11,8.9,19.9,19.9,19.9h407.5h198.4h172.6c11,0,19.9-8.9,19.9-19.9V425.4l48.1,40.7c8.4,7.1,21,6,28-2.3C992.4,455.4,991.3,442.9,983,435.8z M538.1,927.1V580h158.7v347.1H538.1z M869.4,927.1H736.6v-367c0-11-8.9-19.9-19.9-19.9H518.2c-11,0-19.9,8.9-19.9,19.9v367H130.6V391.8L500,79l369.4,312.7V927.1z"/></g>
</svg>